ffmpeg version 7.0-essentials_build-www.gyan.dev Copyright (c) 2000-2024 the FFmpeg developers
  built with gcc 13.2.0 (Rev5, Built by MSYS2 project)
  configuration: --enable-gpl --enable-version3 --enable-static --disable-w32threads --disable-autodetect --enable-fontconfig --enable-iconv --enable-gnutls --enable-libxml2 --enable-gmp --enable-bzlib --enable-lzma --enable-zlib --enable-libsrt --enable-libssh --enable-libzmq --enable-avisynth --enable-sdl2 --enable-libwebp --enable-libx264 --enable-libx265 --enable-libxvid --enable-libaom --enable-libopenjpeg --enable-libvpx --enable-mediafoundation --enable-libass --enable-libfreetype --enable-libfribidi --enable-libharfbuzz --enable-libvidstab --enable-libvmaf --enable-libzimg --enable-amf --enable-cuda-llvm --enable-cuvid --enable-dxva2 --enable-d3d11va --enable-d3d12va --enable-ffnvcodec --enable-libvpl --enable-nvdec --enable-nvenc --enable-vaapi --enable-libgme --enable-libopenmpt --enable-libopencore-amrwb --enable-libmp3lame --enable-libtheora --enable-libvo-amrwbenc --enable-libgsm --enable-libopencore-amrnb --enable-libopus --enable-libspeex --enable-libvorbis --enable-librubberband
  libavutil      59.  8.100 / 59.  8.100
  libavcodec     61.  3.100 / 61.  3.100
  libavformat    61.  1.100 / 61.  1.100
  libavdevice    61.  1.100 / 61.  1.100
  libavfilter    10.  1.100 / 10.  1.100
  libswscale      8.  1.100 /  8.  1.100
  libswresample   5.  1.100 /  5.  1.100
  libpostproc    58.  1.100 / 58.  1.100
Input #0, png_pipe, from 'C:\Users\thanh\AppData\Local\Temp\temp-image11127447078654370145.jpg':
  Duration: N/A, bitrate: N/A
  Stream #0:0: Video: png, ya8(pc, gbr/bt709/bt470m), 832x1024, 25 fps, 25 tbr, 25 tbn
[mp3 @ 000002cb9fca3980] Estimating duration from bitrate, this may be inaccurate
Input #1, mp3, from 'C:\Users\thanh\AppData\Local\Temp\temp-audio14397992521093774101.mp3':
  Duration: 00:03:02.47, start: 0.000000, bitrate: 256 kb/s
  Stream #1:0: Audio: mp3 (mp3float), 44100 Hz, stereo, fltp, 256 kb/s
Stream mapping:
  Stream #0:0 -> #0:0 (png (native) -> h264 (libx264))
  Stream #1:0 -> #0:1 (mp3 (mp3float) -> aac (native))
Press [q] to stop, [?] for help
[libx264 @ 000002cb9fc97240] using cpu capabilities: MMX2 SSE2Fast SSSE3 SSE4.2 AVX FMA3 BMI2 AVX2 AVX512
[libx264 @ 000002cb9fc97240] profile High, level 3.1, 4:0:0, 8-bit
[libx264 @ 000002cb9fc97240] 264 - core 164 r3190 7ed753b - H.264/MPEG-4 AVC codec - Copyleft 2003-2024 - http://www.videolan.org/x264.html - options: cabac=1 ref=3 deblock=1:0:0 analyse=0x3:0x113 me=hex subme=7 psy=1 psy_rd=1.00:0.00 mixed_ref=1 me_range=16 chroma_me=0 trellis=1 8x8dct=1 cqm=0 deadzone=21,11 fast_pskip=1 chroma_qp_offset=-2 threads=12 lookahead_threads=2 sliced_threads=0 nr=0 decimate=1 interlaced=0 bluray_compat=0 constrained_intra=0 bframes=3 b_pyramid=2 b_adapt=1 b_bias=0 direct=1 weightb=1 open_gop=0 weightp=2 keyint=250 keyint_min=25 scenecut=40 intra_refresh=0 rc_lookahead=40 rc=crf mbtree=1 crf=23.0 qcomp=0.60 qpmin=0 qpmax=69 qpstep=4 ip_ratio=1.40 aq=1:1.00
Output #0, mp4, to 'C:\Users\thanh\AppData\Local\Temp\output-video15811003269459385696.mp4':
  Metadata:
    encoder         : Lavf61.1.100
  Stream #0:0: Video: h264 (avc1 / 0x31637661), gray(pc, unknown/bt709/bt470m, progressive), 832x1024, q=2-31, 25 fps, 12800 tbn
      Metadata:
        encoder         : Lavc61.3.100 libx264
      Side data:
        cpb: bitrate max/min/avg: 0/0/0 buffer size: 0 vbv_delay: N/A
  Stream #0:1: Audio: aac (LC) (mp4a / 0x6134706D), 44100 Hz, stereo, fltp, 192 kb/s
      Metadata:
        encoder         : Lavc61.3.100 aac
frame=  134 fps=0.0 q=28.0 size=       0KiB time=00:00:05.28 bitrate=   0.1kbits/s speed=10.3x    frame=  218 fps=211 q=28.0 size=       0KiB time=00:00:08.64 bitrate=   0.0kbits/s speed=8.36x    frame=  404 fps=260 q=28.0 size=     256KiB time=00:00:16.08 bitrate= 130.4kbits/s speed=10.4x    frame=  577 fps=280 q=28.0 size=     512KiB time=00:00:22.82 bitrate= 183.8kbits/s speed=11.1x    frame=  763 fps=295 q=28.0 size=     768KiB time=00:00:30.25 bitrate= 208.0kbits/s speed=11.7x    frame=  947 fps=305 q=28.0 size=     768KiB time=00:00:37.80 bitrate= 166.5kbits/s speed=12.2x    frame= 1131 fps=312 q=28.0 size=    1024KiB time=00:00:45.16 bitrate= 185.8kbits/s speed=12.4x    frame= 1309 fps=316 q=28.0 size=    1280KiB time=00:00:52.28 bitrate= 200.6kbits/s speed=12.6x    frame= 1489 fps=320 q=28.0 size=    1536KiB time=00:00:59.48 bitrate= 211.6kbits/s speed=12.8x    frame= 1683 fps=325 q=28.0 size=    1792KiB time=00:01:07.24 bitrate= 218.3kbits/s speed=  13x    frame= 1873 fps=327 q=28.0 size=    1792KiB time=00:01:14.84 bitrate= 196.2kbits/s speed=13.1x    frame= 2010 fps=322 q=28.0 size=    2048KiB time=00:01:20.32 bitrate= 208.9kbits/s speed=12.9x    frame= 2138 fps=316 q=28.0 size=    2304KiB time=00:01:25.44 bitrate= 220.9kbits/s speed=12.6x    frame= 2256 fps=310 q=28.0 size=    2304KiB time=00:01:30.16 bitrate= 209.3kbits/s speed=12.4x    frame= 2349 fps=301 q=28.0 size=    2304KiB time=00:01:33.88 bitrate= 201.1kbits/s speed=  12x    frame= 2472 fps=297 q=28.0 size=    2560KiB time=00:01:38.80 bitrate= 212.3kbits/s speed=11.9x    frame= 2581 fps=292 q=28.0 size=    2560KiB time=00:01:43.16 bitrate= 203.3kbits/s speed=11.7x    frame= 2674 fps=286 q=28.0 size=    2816KiB time=00:01:46.88 bitrate= 215.8kbits/s speed=11.4x    frame= 2790 fps=282 q=28.0 size=    2816KiB time=00:01:51.52 bitrate= 206.9kbits/s speed=11.3x    frame= 2909 fps=280 q=28.0 size=    3072KiB time=00:01:56.28 bitrate= 216.4kbits/s speed=11.2x    frame= 3022 fps=277 q=28.0 size=    3072KiB time=00:02:00.80 bitrate= 208.3kbits/s speed=11.1x    frame= 3135 fps=274 q=28.0 size=    3328KiB time=00:02:05.32 bitrate= 217.5kbits/s speed=  11x    frame= 3239 fps=271 q=28.0 size=    3328KiB time=00:02:09.48 bitrate= 210.6kbits/s speed=10.8x    frame= 3331 fps=267 q=28.0 size=    3584KiB time=00:02:13.16 bitrate= 220.5kbits/s speed=10.7x    frame= 3425 fps=264 q=28.0 size=    3584KiB time=00:02:16.92 bitrate= 214.4kbits/s speed=10.6x    frame= 3510 fps=260 q=28.0 size=    3584KiB time=00:02:20.32 bitrate= 209.2kbits/s speed=10.4x    frame= 3599 fps=257 q=28.0 size=    3840KiB time=00:02:23.80 bitrate= 218.8kbits/s speed=10.3x    frame= 3678 fps=253 q=28.0 size=    3840KiB time=00:02:27.02 bitrate= 214.0kbits/s speed=10.1x    frame= 3764 fps=250 q=28.0 size=    3840KiB time=00:02:30.48 bitrate= 209.0kbits/s speed=  10x    frame= 3864 fps=248 q=28.0 size=    4096KiB time=00:02:34.48 bitrate= 217.2kbits/s speed=9.93x    frame= 3977 fps=247 q=28.0 size=    4096KiB time=00:02:39.00 bitrate= 211.0kbits/s speed=9.89x    frame= 4078 fps=246 q=28.0 size=    4352KiB time=00:02:43.04 bitrate= 218.7kbits/s speed=9.82x    frame= 4177 fps=244 q=28.0 size=    4352KiB time=00:02:47.00 bitrate= 213.5kbits/s speed=9.75x    frame= 4272 fps=242 q=28.0 size=    4608KiB time=00:02:50.80 bitrate= 221.0kbits/s speed=9.68x    frame= 4389 fps=242 q=28.0 size=    4608KiB time=00:02:55.48 bitrate= 215.1kbits/s speed=9.66x    frame= 4514 fps=242 q=28.0 size=    4864KiB time=00:03:00.48 bitrate= 220.8kbits/s speed=9.66x    [out#0/mp4 @ 000002cba1b1c2c0] video:549KiB audio:4370KiB subtitle:0KiB other streams:0KiB global headers:0KiB muxing overhead: 3.076423%
frame= 4607 fps=244 q=-1.0 Lsize=    5071KiB time=00:03:02.46 bitrate= 227.6kbits/s speed=9.67x    
[libx264 @ 000002cb9fc97240] frame I:19    Avg QP:10.50  size: 15383
[libx264 @ 000002cb9fc97240] frame P:1161  Avg QP:24.47  size:    58
[libx264 @ 000002cb9fc97240] frame B:3427  Avg QP:33.67  size:    59
[libx264 @ 000002cb9fc97240] consecutive B-frames:  0.8%  0.0%  0.0% 99.2%
[libx264 @ 000002cb9fc97240] mb I  I16..4: 45.6% 38.7% 15.7%
[libx264 @ 000002cb9fc97240] mb P  I16..4:  0.2%  0.0%  0.0%  P16..4:  0.0%  0.0%  0.0%  0.0%  0.0%    skip:99.7%
[libx264 @ 000002cb9fc97240] mb B  I16..4:  0.2%  0.1%  0.0%  B16..8:  0.2%  0.0%  0.0%  direct: 0.0%  skip:99.5%  L0:41.4% L1:58.6% BI: 0.0%
[libx264 @ 000002cb9fc97240] 8x8 transform intra:33.5% inter:9.1%
[libx264 @ 000002cb9fc97240] coded y intra: 5.8% inter: 0.0%
[libx264 @ 000002cb9fc97240] i16 v,h,dc,p: 97%  1%  2%  0%
[libx264 @ 000002cb9fc97240] i8 v,h,dc,ddl,ddr,vr,hd,vl,hu: 43%  4% 52%  0%  0%  0%  0%  0%  0%
[libx264 @ 000002cb9fc97240] i4 v,h,dc,ddl,ddr,vr,hd,vl,hu: 35% 23% 14%  6%  2%  4%  7%  8%  2%
[libx264 @ 000002cb9fc97240] i8c dc,h,v,p: 100%  0%  0%  0%
[libx264 @ 000002cb9fc97240] Weighted P-Frames: Y:0.0%
[libx264 @ 000002cb9fc97240] ref P L0: 93.0%  2.3%  3.2%  1.5%
[libx264 @ 000002cb9fc97240] ref B L0: 77.2% 22.3%  0.5%
[libx264 @ 000002cb9fc97240] ref B L1: 97.9%  2.1%
[libx264 @ 000002cb9fc97240] kb/s:24.39
[aac @ 000002cba1b4da40] Qavg: 496.817
